/* XPM */
static char * collectible_xpm[] = {
"40 40 254 2",
"  	c #9C1E23",
". 	c #9C1E21",
"+ 	c #961F1F",
"@ 	c #9C1D23",
"# 	c #9F1B21",
"$ 	c #A11B22",
"% 	c #9F1B25",
"& 	c #9B1D26",
"* 	c #9B1E24",
"= 	c #9C1D24",
"- 	c #9E1C26",
"; 	c #9F1B26",
"> 	c #9F1B24",
", 	c #7B9228",
"' 	c #62B029",
") 	c #6EA428",
"! 	c #68AA28",
"~ 	c #7B9327",
"{ 	c #7E8F27",
"] 	c #818927",
"^ 	c #57B929",
"/ 	c #59B828",
"( 	c #759B28",
"_ 	c #7A9328",
": 	c #C51E23",
"< 	c #CA181E",
"[ 	c #CB181F",
"} 	c #D21822",
"| 	c #D41521",
"1 	c #D51521",
"2 	c #D21623",
"3 	c #CF1824",
"4 	c #CE1823",
"5 	c #CF1822",
"6 	c #D11623",
"7 	c #D41623",
"8 	c #D51522",
"9 	c #9C9226",
"0 	c #5AB829",
"a 	c #77AC27",
"b 	c #5DB729",
"c 	c #5FB729",
"d 	c #62B529",
"e 	c #56BA29",
"f 	c #56B929",
"g 	c #8AA127",
"h 	c #CA1920",
"i 	c #D8121D",
"j 	c #DD121F",
"k 	c #E00E1E",
"l 	c #E00E1C",
"m 	c #DF0F1C",
"n 	c #DD101E",
"o 	c #DA111F",
"p 	c #DA111E",
"q 	c #DA111D",
"r 	c #DC101F",
"s 	c #DD101D",
"t 	c #83A727",
"u 	c #63B528",
"v 	c #64B528",
"w 	c #82A725",
"x 	c #59B929",
"y 	c #5CB829",
"z 	c #67B429",
"A 	c #61B529",
"B 	c #82A826",
"C 	c #C56620",
"D 	c #D24C20",
"E 	c #DE101D",
"F 	c #CB1820",
"G 	c #DC111F",
"H 	c #E00D1E",
"I 	c #E00B1D",
"J 	c #E10E1D",
"K 	c #DE0F1D",
"L 	c #DB101F",
"M 	c #DC111D",
"N 	c #DC101D",
"O 	c #DE0F1E",
"P 	c #D4401F",
"Q 	c #9F9225",
"R 	c #77AD28",
"S 	c #7BAB27",
"T 	c #A88A24",
"U 	c #61B628",
"V 	c #75AE28",
"W 	c #67B428",
"X 	c #7FA928",
"Y 	c #83A627",
"Z 	c #7EA927",
"` 	c #66B529",
" .	c #6CB228",
"..	c #DB111D",
"+.	c #D11822",
"@.	c #DF0E1E",
"#.	c #E00C1D",
"$.	c #DD0E1D",
"%.	c #DB111C",
"&.	c #D8121C",
"*.	c #D8121E",
"=.	c #D9121F",
"-.	c #DD101C",
";.	c #CB571F",
">.	c #6DB128",
",.	c #58B929",
"'.	c #5DB828",
").	c #85A526",
"!.	c #C4611F",
"~.	c #B27B22",
"{.	c #72AF28",
"].	c #71AF28",
"^.	c #B08123",
"/.	c #C36120",
"(.	c #D9121C",
"_.	c #9F9224",
":.	c #D9121B",
"<.	c #D8121B",
"[.	c #D41621",
"}.	c #E00F1D",
"|.	c #E20F1D",
"1.	c #D7121B",
"2.	c #D5141A",
"3.	c #D7121C",
"4.	c #D9111E",
"5.	c #DC101B",
"6.	c #DC111B",
"7.	c #CA571E",
"8.	c #6EB128",
"9.	c #5BB829",
"0.	c #76AD27",
"a.	c #D8231B",
"b.	c #DA111B",
"c.	c #DA121B",
"d.	c #AA8723",
"e.	c #82A727",
"f.	c #81A727",
"g.	c #A98723",
"h.	c #D9111A",
"i.	c #DE0E1B",
"j.	c #DF101D",
"k.	c #D7111C",
"l.	c #D51519",
"m.	c #DD101A",
"n.	c #DC1019",
"o.	c #D2401C",
"p.	c #A09223",
"q.	c #A78B23",
"r.	c #DC111A",
"s.	c #DB111A",
"t.	c #66B428",
"u.	c #D21622",
"v.	c #DC0F1D",
"w.	c #D7111D",
"x.	c #DB101D",
"y.	c #DF0E1C",
"z.	c #DA111C",
"A.	c #C36620",
"B.	c #DB111E",
"C.	c #CE1824",
"D.	c #D9101E",
"E.	c #DB111F",
"F.	c #D9101F",
"G.	c #DF0E1F",
"H.	c #E00E20",
"I.	c #DC101C",
"J.	c #D9111D",
"K.	c #CD1921",
"L.	c #D8111C",
"M.	c #DA101D",
"N.	c #DD111C",
"O.	c #DF0E1D",
"P.	c #E00E1F",
"Q.	c #DE0F1C",
"R.	c #D9121D",
"S.	c #DC111C",
"T.	c #DC111E",
"U.	c #DC0F1C",
"V.	c #440203",
"W.	c #420203",
"X.	c #D70E1E",
"Y.	c #DA121C",
"Z.	c #A10912",
"`.	c #6D0408",
" +	c #A20912",
".+	c #DB111B",
"++	c #D01821",
"@+	c #DA101B",
"#+	c #DD111E",
"$+	c #DB0F1D",
"%+	c #060101",
"&+	c #000000",
"*+	c #040101",
"=+	c #CF101D",
"-+	c #DA121D",
";+	c #940810",
">+	c #250101",
",+	c #D31622",
"'+	c #DC121C",
")+	c #D9101C",
"!+	c #D0101D",
"~+	c #94080F",
"{+	c #480204",
"]+	c #DC0F1B",
"^+	c #DB121C",
"/+	c #D9111B",
"(+	c #420202",
"_+	c #D5101E",
":+	c #DC101E",
"<+	c #CB0E19",
"[+	c #BE0E16",
"}+	c #CC0E19",
"|+	c #DD0F1B",
"1+	c #640308",
"2+	c #640307",
"3+	c #1B0101",
"4+	c #010000",
"5+	c #B60C16",
"6+	c #95080F",
"7+	c #B70C16",
"8+	c #360102",
"9+	c #950810",
"0+	c #C00D16",
"a+	c #A10910",
"b+	c #C00D1A",
"c+	c #C00E16",
"d+	c #750509",
"e+	c #75050A",
"f+	c #C70D18",
"g+	c #B50D14",
"h+	c #82060C",
"i+	c #300102",
"j+	c #83060C",
"k+	c #110000",
"l+	c #91070F",
"m+	c #540205",
"n+	c #AC0B15",
"o+	c #82060D",
"p+	c #1F0001",
"q+	c #CC0E1C",
"r+	c #C00D18",
"s+	c #BF0E17",
"t+	c #CB0E1A",
"u+	c #83060D",
"v+	c #940811",
"w+	c #490204",
"x+	c #AB0B15",
"y+	c #250001",
"z+	c #C70D19",
"A+	c #910710",
"B+	c #A10913",
"C+	c #6D0409",
"D+	c #6C0409",
"E+	c #B50D15",
"  . + @ # $ % & * = - ; > , ' ' ) ! ~ { ] ^ / ^ ( _ % > % > % % > % > % % > % > ",
": < [ } | 1 2 3 4 5 6 7 8 9 0 0 a b c d e f e f e g 8 8 8 8 8 8 8 8 8 8 8 8 8 8 ",
"h i j k l m n o p q r s s t u v w x e y z f f e A B C D E E E E E E E E E E E E ",
"F G H I J K n L M N O P Q R 0 S T b x U V W X Y Z `  .Q ..q ....q ..q ....q ..q ",
"+.@.#.$.%.&.*.=.%.-.-.;.>.,.'.).!.~.{.>.].^./.(.Q y y _.:.<.(.:.<.:.<.(.:.<.:.<.",
"[.}.|...1.2.3.4.5.6.6.7.8.9.0.7.a.b.{.e {.c.b.c.d.e.f.g.h.h.c.h.h.h.h.c.h.h.h.h.",
"1 i.j.k.2.l.<.N m.n.c.o.p.p.q.r.s.s.{.t.{.s.s.s.s.r.s.s.s.s.r.s.s.s.s.r.s.s.s.s.",
"u.v.n w.3.<.x.@.y.5.z.q ............A.A.A.................B.........B.........B.",
"C.D.E.F.4.N G.H.l I.J.p o o o E.o o o o E.o o o o E.p p p p E.p p p p E.p p p p ",
"K.L...M.N.-.O.P.Q.%.R.q S.S.S.S.S.S.S.S.S.S.S.S.S.S.S.S.S.S.S.S.S.S.S.S.S.S.S.S.",
"K.L.T.U.V.W.W.X.%.Y.R.q z.%.%.%.%.Z.`.`. +%.z.%.%.%..+z.%.b.%..+z.%.b.%..+z.%.b.",
"++@+#+$+%+&+*+=+R.R.*.R.-+q q q q ;+>+>+;+q q q q q q J.q J.q q J.q J.q q J.q J.",
",+I.'+)+%+&+*+!+p q R.q z.z.z.q z.~+{+{+;+z.z.z.z.q q q q q q q q q q q q q q q ",
"8 ]+^+/+W.(+W._+:+z.q z.z.z.z.%.z.<+[+[+}+z.z.z.z.%.q %.%.q %.q %.%.q %.q %.%.q ",
"8 |+Y./+c.s...o :+z.q z.z.z.z.%.z.z.z.z.%.z.z.z.z.%.q %.%.q %.1+2+2+q %.q %.%.q ",
"8 ]+Y./+b.s.x.o :+z.q z.z.z.z.%.z.z.z.z.%.z.z.z.z.%.q %.%.q %.3+4+3+q %.q %.%.q ",
"8 |+^+/+c.r...E.:+..q q %.%.%...%.%.%.%...%.%.%.%...q ....q ..3+4+3+q ..q ....q ",
"8 |+Y./+c.s...o :+z.q z.z.z.z.%.z.z.z.z.%.z.z.z.z.%.q %.%.q %.1+2+2+q %.q %.%.q ",
"8 ]+Y./+b.s.x.o :+z.q z.z.z.z.%.z.z.z.z.%.z.z.z.z.%.q %.%.q %.q %.%.q %.q %.%.q ",
"8 |+Y./+c.s...o :+z.q z.z.z.z.%.z.z.z.z.%.z.z.z.5+6+;+7+%.q %.q %.%.q %.q %.%.q ",
"8 ]+Y./+b.s.x.o :+z.q z.z.z.z.%.z.z.z.z.%.z.z.z.~+8+8+6+%.q %.q %.%.q %.q %.%.q ",
"8 |+^+/+c.r...E.:+..q q %.%.%...%.%.%.%...%.%.%.6+8+8+9+..q ..q ....q ..q ....q ",
"8 |+Y./+c.s...o :+z.q z.z.z.z.%.z.z.z.z.%.z.z.z.5+6+;+7+%.q %.q %.%.q %.q %.%.q ",
"8 ]+Y./+0+a+Z.b+:+z.q z.z.z.z.%.z.z.z.z.%.z.z.z.z.%.q %.%.q %.q %.%.q %.q %.%.q ",
"8 |+Y./+c+d+e+b+:+z.q z.z.z.z.%.f+g+g+f+%.z.z.z.z.%.q %.%.q %.q %.%.q %.q %.%.q ",
"8 ]+Y./+0+a+Z.b+:+z.q z.z.z.z.%.h+i+i+h+%.z.z.z.z.%.q %.%.q %.q %.%.q %.q %.%.q ",
"8 |+^+/+c.r...E.:+..q q %.%.%...j+k+k+j+..%.%.%.%...q ....q ..q ....q ..q ....q ",
"8 ]+Y.h.h.s.x.p :+q q q z.z.z.q l+m+m+l+q z.z.z.z.q q q q q q q q q q q q q q q ",
"8 |+Y.h.h.s...p :+..q q %.%.%...%.%.%.%...%.%.%.%...q ....q ..q ....q ..q ....q ",
"8 ]+Y.h.h.s.x.p :+q q q z.z.z...z.z.z.z...z.z.z.z...q n+o+o+n+q ..q q ..q ..q q ",
"8 |+Y.h.h.s.B.p :+q q q q q q q q q q q q q q q q q q o+p+p+o+q q q q q q q q q ",
"8 |+^+/+c.r...q+r+s+t+q %.%.%...%.%.%.%...%.%.%.%...q u+p+p+u+q ....q ..q ....q ",
"8 ]+Y.h.h.s.x.v+w+{+;+q z.z.z.q z.z.z.z.q z.z.z.z.q q x+o+o+x+q q q q q q q q q ",
"8 |+Y.h.h.s...v+y+>+;+q %.%.%...%.%.%.%...%.%.%.%...q ....q ..q ..z+o+u+A+....q ",
"8 ]+Y.h.h.s.x.B+C+D+B+q z.z.z...z.z.z.z...z.z.z.z...q ..q q ..q ..E+i+k+m+..q q ",
"8 |+Y.h.h.s.B.p :+q q q q q q q q q q q q q q q q q q q q q q q q E+i+k+m+q q q ",
"8 |+^+/+c.r...E.:+..q q %.%.%...%.%.%.%...%.%.%.%...q ....q ..q ..z+o+u+A+....q ",
"8 ]+Y.h.h.s.x.p :+q q q z.z.z.q z.z.z.z.q z.z.z.z.q q q q q q q q q q q q q q q ",
"8 |+Y.h.h.s...p :+..q q %.%.%...%.%.%.%...%.%.%.%...q ....q ..q ....q ..q ....q ",
"8 ]+Y.h.h.s.x.p :+q q q z.z.z...z.z.z.z...z.z.z.z...q ..q q ..q ..q q ..q ..q q "};
