/* XPM */
static char * exit_xpm[] = {
"40 40 37 1",
" 	c #0096FF",
".	c #019BE8",
"+	c #029FD3",
"@	c #04A97C",
"#	c #05AC37",
"$	c #05AD15",
"%	c #03A4AB",
"&	c #04AB5B",
"*	c #02A2BC",
"=	c #05AD18",
"-	c #05AD2A",
";	c #05AD26",
">	c #03A88A",
",	c #03A3B9",
"'	c #04AC39",
")	c #04AD2D",
"!	c #04AC49",
"~	c #02A2B9",
"{	c #02A2C0",
"]	c #04AC4B",
"^	c #04AB5C",
"/	c #04A97E",
"(	c #0098F4",
"_	c #05AD21",
":	c #05AD2D",
"<	c #04AC43",
"[	c #04AA66",
"}	c #03A97D",
"|	c #04AA71",
"1	c #04AC44",
"2	c #04AC3C",
"3	c #05AD23",
"4	c #03A69B",
"5	c #04AC3D",
"6	c #04AC48",
"7	c #05AD2E",
"8	c #04AB53",
"            .++.                        ",
"          @#$$$$%                       ",
"         &$$$$$$$*                      ",
"         $$$$$$$$&                      ",
"         $$$$=$$$-                      ",
"         $$$$;$$$$                      ",
"         $$$$$$$$$                      ",
"          @$$$$$$@                      ",
"           >$$$*                        ",
"            ..,')!~+{{{]$$^/%.          ",
"              *$$$$$$$$$$$$$$$          ",
"              *$$$$$$$$$$$$$$$@         ",
"              ($$$$$___:<[]$$$$@        ",
"              @$$$$}        $$$$@       ",
"             >$$$$$<        .$$$$$      ",
"            *$$$$$$$.        .$$$$@     ",
"           .$$$$%$$$+         |$$$$     ",
"          *1$$$> #$$[           $$$     ",
"         .$$$$<  |$$$           ...     ",
" @2__3$$]$$$$$>  .$$$.                  ",
" $$$$$$$$$$$>*    $$$|                  ",
" $$$$$$$$$$2      |$$$.                 ",
" .+{{4/[^$$@      .$$$5(                ",
"                  .$$$$6                ",
"                  $$$$$$*               ",
"                .$$$$$$$*               ",
"               .$$$27$$$*               ",
"               /$$$@]$$]            ... ",
"              *$$$& [$$[       .%/]]$$$ ",
"              &$$$* /$$5%8:$$$$$$$$$$$$ ",
"             >$$$/  4$$$$$$$$$$$$$$$$$@ ",
"            %$$$$.  {$$$$$$$$$$$$<]][*  ",
"           >$$$$*   +$$$$84+.           ",
"          *$$$$&    .$$&                ",
"         .$$$$>                         ",
"         $$$$>                          ",
"       *$$$$@                           ",
"       >$$$$                            ",
"       >$$$                             ",
"       *$$$                             "};
