/* XPM */
static char * floor_xpm[] = {
"40 40 30 1",
" 	c #ACADB1",
".	c #9C9DA0",
"+	c #97989B",
"@	c #7D7E81",
"#	c #505153",
"$	c #000000",
"%	c #0A0A0B",
"&	c #050505",
"*	c #0D0D0D",
"=	c #1A1A1B",
"-	c #5A5B5D",
";	c #39393A",
">	c #717275",
",	c #898A8D",
"'	c #666769",
")	c #161617",
"!	c #8D8E91",
"~	c #808184",
"{	c #5C5D5F",
"]	c #0B0B0B",
"^	c #393A3B",
"/	c #494A4B",
"(	c #272728",
"_	c #515254",
":	c #404142",
"<	c #48484A",
"[	c #222324",
"}	c #272829",
"|	c #2D2D2E",
"1	c #131313",
"                                        ",
"                                        ",
"                                        ",
"                                        ",
"                                        ",
"                          ...           ",
"             +@@+       #$$$$$%%&*=-@   ",
"             @$$@      .$$$$$$$$$$$$$   ",
"             ;$$>      >$$$$$$$$$$$$$   ",
"            @$$$,      '$$) .!~~{]$$^   ",
"            -$$$.      /$$(     $$$$_   ",
"            :$$:       $$$;    .$$$$.   ",
"           .$$$-       $$$@    <$$$     ",
"           <$$$@       ###    -$$$<     ",
"          .$$$<              .[$$$.     ",
"          $$$$.              $$$$_      ",
"         #$$$#              $$$$$.      ",
"        .$$$$              $$$$#        ",
"        <$$$.            @$$$$$         ",
"       @$$$<             ;$$$$          ",
"      .$$$$.            -$$$>           ",
"      <$$$@             $$$$.    >$$;   ",
"    .>$$$<    @@>!!.   $$$$}::($$$$$$   ",
"   @$$$$$.@:|=$$$$$$$# $$$$$$$$$$$$$$   ",
"   $$$$$$$$$$$$$$$$$$$ $$$$$$$$$$$$-@   ",
"   $$$$$$$$$$$$$$$$$$$  @-::::_>.       ",
"   @$$$$$$$$|^>.  '$$1                  ",
"    @@@           _$$(                  ",
"                  _$$(                  ",
"                  :$$:                  ",
"                  ($$_                  ",
"                  $$$>                  ",
"                  $$$.                  ",
"                 .$$$                   ",
"                 !$$$                   ",
"                 '$$)                   ",
"                 >$$;                   ",
"                 @$$@                   ",
"                                        ",
"                                        "};
