/* XPM */
static char * player_xpm[] = {
"40 40 88 1",
" 	c #FFFFFF",
".	c #F9F3F3",
"+	c #F5EAEA",
"@	c #F4E6E6",
"#	c #D58F8F",
"$	c #D79696",
"%	c #E4BFBF",
"&	c #CC6C6C",
"*	c #C85858",
"=	c #E8C8C8",
"-	c #DCA8A8",
";	c #DAA2A2",
">	c #F7ECEC",
",	c #C95E5E",
"'	c #D48D8D",
")	c #FBF6F6",
"!	c #E8CACA",
"~	c #CD6F6F",
"{	c #D07F7F",
"]	c #EACFCF",
"^	c #CF7777",
"/	c #CC6D6D",
"(	c #CF7979",
"_	c #C74D4D",
":	c #D69595",
"<	c #DCA7A7",
"[	c #C33232",
"}	c #E4C0C0",
"|	c #C64646",
"1	c #CA6363",
"2	c #F0DDDD",
"3	c #E5C0C0",
"4	c #CF7A7A",
"5	c #DEACAC",
"6	c #C95A5A",
"7	c #D28787",
"8	c #E9CDCD",
"9	c #CF7878",
"0	c #CA5E5E",
"a	c #D59393",
"b	c #DFB2B2",
"c	c #D18383",
"d	c #E7C7C7",
"e	c #E5C1C1",
"f	c #D38A8A",
"g	c #C64747",
"h	c #D07C7C",
"i	c #EFD9D9",
"j	c #D28484",
"k	c #CC6A6A",
"l	c #D07E7E",
"m	c #CA6262",
"n	c #D59292",
"o	c #E0B4B4",
"p	c #DBA6A6",
"q	c #CD7070",
"r	c #CE7777",
"s	c #E2B8B8",
"t	c #C95959",
"u	c #D48C8C",
"v	c #DEADAD",
"w	c #D48B8B",
"x	c #EBCFCF",
"y	c #CE7676",
"z	c #CB6565",
"A	c #E0B3B3",
"B	c #D99C9C",
"C	c #DAA0A0",
"D	c #D18181",
"E	c #DDACAC",
"F	c #D89B9B",
"G	c #E3BBBB",
"H	c #D59191",
"I	c #D59090",
"J	c #CA6060",
"K	c #D89999",
"L	c #DEAEAE",
"M	c #ECD4D4",
"N	c #E6C3C3",
"O	c #D99F9F",
"P	c #CC6B6B",
"Q	c #D38989",
"R	c #E2BABA",
"S	c #DDAAAA",
"T	c #CB6767",
"U	c #E3BABA",
"V	c #D07D7D",
"W	c #D79797",
"                                        ",
"                                        ",
"                                        ",
"                                        ",
"     .+@                                ",
"     .#$%                               ",
"      @&*=                       +.-;   ",
"       >,'@                     )!~{]   ",
"        @^/                    @(_:     ",
"        )<[}                 %'|12      ",
"        34567              @890a        ",
"        b{)c6d            efghijd       ",
"        dk ]lmn2        @om,p eqd       ",
"        }rs  (tu        @vw) ]xy)       ",
"        ozABC7D@          EFG]Hj        ",
"        @IJ#KL)           =9/#h}        ",
"           )2@             8o}7@        ",
"                                        ",
"                                        ",
"                                        ",
"                                        ",
"                                        ",
"                                        ",
"                                        ",
"                                        ",
"                                        ",
"    @@)                            @    ",
"    )MM)                           @=   ",
"     =hN                         ]oO2   ",
"      PQ)                        n5R    ",
"       $r)                     )eFoM    ",
"        %&                   )MS#L      ",
"        )sy$@               ]5<L;@      ",
"          )#T;)          )UOj#%@        ",
"            ]#~4-uUddss<nVDc]>          ",
"             )>o-;n77IIWn2>             ",
"                                        ",
"                                        ",
"                                        ",
"                                        "};
