/* XPM */
static char * wall_xpm[] = {
"40 40 50 1",
" 	c #020D09",
".	c #010A07",
"+	c #020B08",
"@	c #030C09",
"#	c #050B09",
"$	c #060C0A",
"%	c #070D0B",
"&	c #060F0C",
"*	c #0A100E",
"=	c #030907",
"-	c #040A08",
";	c #06110D",
">	c #000906",
",	c #07100D",
"'	c #090F0D",
")	c #050E0B",
"!	c #040D0A",
"~	c #050908",
"{	c #040807",
"]	c #060A09",
"^	c #020806",
"/	c #030706",
"(	c #010705",
"_	c #080E0C",
":	c #08110E",
"<	c #0B1411",
"[	c #0D1613",
"}	c #000B07",
"|	c #010C08",
"1	c #040F0B",
"2	c #05100C",
"3	c #0B110F",
"4	c #080C0B",
"5	c #090D0C",
"6	c #070B0A",
"7	c #020605",
"8	c #0C1210",
"9	c #070D09",
"0	c #040A06",
"a	c #060C08",
"b	c #030905",
"c	c #050B07",
"d	c #0A100C",
"e	c #09120F",
"f	c #080E0A",
"g	c #090F0B",
"h	c #020804",
"i	c #010703",
"j	c #000805",
"k	c #050B0B",
" .+@@##$%@&&+$**#===-#$$$=$$#-#$#-##$##-",
";>.+@%%$-@,,@#''#-==-#$###$$#-##-#######",
",)@+@%%%#),&!#$$=$#--$$$#$$$$$$$$~--++##",
"%)!!@#$$$!!!!#---%#--$%$#$$#$$$$${=-@@##",
"].@))#-#$+.+@#--$$-^=#$$#$#####--/=#!!$-",
"&@@@@@@@!#-=-##-^(^=-##--#-==-$%%^=-==-%",
"&@+++@@@@##-###-^##$%%$##$####$##''_$#$'",
"))!@!&&)!###$$#-=###$##-=]]]]]]~{-#-=^^-",
"!)!!&::&!##$%%$#-^^==--=={{/{~~~{^-%_%$#",
"@++@)&&!+-#$%%$$#---#####~{//{~~]-$_''_$",
".@!!)))))#$$$$#$$########%#---#$$$#--===",
")&,&)!):<%%%$--##------##!@@@!)))'_$###$",
"[,,&@.@:[__%#===#^^=-#$%%}}| 1221#-##$$$",
"@%##__%$%###--$'3$%#^=$$#-.+)&%45$$#$%%#",
"!#==$%%%_$#---#%_=--==#$#%@@))#]6##-#$$$",
"&-=^-$$%_$#--###-(=#--#$$_)!)!-~]#-==-#$",
"&$#-#$%%_%#--$$-^^-$$--#$%!!))-{~#----#$",
",$#--#%__%##$%%#^-#$#=^=#$!)&)-//$$$$#$$",
":---=#%_%%$$%%%#=----^(^-%!)&)-/7#$__%%%",
"&-##-#__$$%%%%$#-=^=##--#%!!)!-{{=#_*'_%",
"@%__$%_%#$%_%$#--=^=%'_%_$@+@@-]4(-_**_%",
"_%-=#%$%_%'88*%-=-$$--%''900aabcd.,e,)&&",
"$$-=$_%%%#%_'%#==#$$-=#$$00bbcfgf+),)!!)",
"%-=-$%$$$-#$$#----##==---h0bicddc)!!)!@!",
"$---#$##-$$%%$$##=---=--#0c0bcfab&!!&)@)",
"=%%%$##$$%%___%$#--##---##-#%$==-)@!,&!!",
"-'*'%$%%%$$$%%%#-_%$$#==##=-_%^=%++@))!!",
"%$_'$#%%%##--$$##'_%$#=-$$##$$###.@@@!))",
"_^#%#-#$##-==-$%$'%$$#=#_$%$=#_%^+))@!,,",
"6>+@+#_'_+@$$$#~{$#--$%$#^^=#$$#-+!)!@!)",
"~!&&)%'*'@)'_$-~]==----##===#$%%%@)!++),",
"])&)!$%%$+)'%-^{]^-$$##$%%%$#$$$$+@@+@),",
"6)!@+---=+!%$-=~]=#$$##$$_%$$$%$$j.@!!)!",
"]&)!!$$##))$%__44-===--=^==-#%__%.@!!!!+",
"]&!@!%$$$)@-#%_46$-==-#-^---#$$#-&&)@@!!",
"6)+.@$#-#@+--##]]%$#-##$$$#-----=&&!@!))",
"]&+.@%$##@@$#--]6#$#-=-$_=^(^-$_'+@@!)&)",
"$@)&)$##]f99f%#-kc000cccc---=^=#%)))!!!!",
"#)&)!---#9cca$##$a0bb0ccc=====-$_)!@@!)!",
"%))@-==#$c00###$_ga0bc999=====-$_$#-#$%%"};
